<?xml version="1.0" standalone="no"?>
<!DOCTYPE svg PUBLIC "-//W3C//DTD SVG 20010904//EN"
 "http://www.w3.org/TR/2001/REC-SVG-20010904/DTD/svg10.dtd">
<svg version="1.0" xmlns="http://www.w3.org/2000/svg"
 width="600.000000pt" height="300.000000pt" viewBox="0 0 600.000000 300.000000"
 preserveAspectRatio="xMidYMid meet">
<g transform="translate(0.000000,300.000000) scale(0.050000,-0.050000)"
fill="#1fa32e" stroke="none">
<path d="M1549 4821 c-246 -12 -364 -55 -368 -135 -1 -13 -18 -35 -38 -50 -46
-33 -83 -101 -83 -155 0 -22 -7 -41 -15 -41 -74 0 -123 -422 -55 -472 16 -12
30 -32 30 -43 0 -11 27 -50 61 -86 86 -92 109 -139 69 -139 -18 0 -27 -9 -20
-20 7 -11 0 -20 -16 -20 -17 0 -27 -18 -26 -45 1 -25 -13 -62 -33 -84 -19 -21
-35 -53 -35 -71 0 -17 -11 -43 -24 -56 -13 -13 -17 -24 -8 -24 9 0 5 -15 -11
-34 -18 -23 -19 -29 -2 -19 14 9 25 6 25 -5 0 -11 -7 -24 -16 -29 -22 -14 -10
-315 15 -381 12 -31 17 -63 11 -72 -5 -9 4 -21 20 -27 17 -7 30 -32 30 -58 0
-25 19 -57 42 -71 23 -15 37 -39 30 -55 -6 -17 1 -29 17 -29 15 0 56 -28 90
-62 35 -35 67 -58 73 -53 6 6 40 -20 76 -57 36 -37 72 -62 79 -54 7 7 13 2 13
-11 0 -13 7 -22 15 -20 17 4 126 -24 152 -38 10 -6 5 -18 -10 -28 -17 -12 -6
-13 31 -5 41 10 54 7 44 -9 -9 -14 -2 -23 17 -23 17 0 31 -9 31 -20 0 -11 12
-20 26 -20 14 0 25 -18 25 -40 0 -27 -9 -37 -28 -30 -24 9 -24 5 -3 -20 27
-33 31 -31 -100 -40 -38 -2 -80 3 -92 13 -11 9 -38 19 -60 23 -21 3 -60 18
-88 33 -27 15 -50 26 -50 23 0 -2 -16 1 -35 9 -19 7 -29 23 -22 34 7 12 4 16
-7 9 -11 -7 -55 5 -97 27 -93 47 -129 49 -129 9 0 -16 -17 -30 -39 -30 -21 0
-44 -18 -51 -39 -7 -24 -23 -35 -41 -28 -30 12 -43 -72 -16 -99 7 -7 11 -88 9
-180 -4 -154 22 -274 59 -274 8 0 25 -27 39 -60 16 -38 48 -68 91 -83 36 -13
77 -45 91 -70 19 -37 42 -47 101 -47 43 0 77 -9 77 -20 0 -12 22 -15 53 -7 44
11 51 7 41 -20 -11 -28 2 -33 75 -33 52 0 91 10 96 25 9 26 115 38 115 13 0
-17 53 -11 73 8 7 8 33 14 56 14 24 0 53 10 66 23 18 18 30 18 52 -1 17 -13
122 -28 246 -34 276 -12 337 -22 367 -59 32 -37 100 -37 173 1 73 38 116 38
147 0 32 -39 89 -38 151 2 30 20 76 29 119 24 38 -4 70 0 70 9 0 10 8 12 18
6 21 -13 194 143 187 170 -3 10 8 19 25 19 16 0 30 16 30 36 0 20 10 46 23 59
14 14 22 96 22 214 -1 117 6 191 19 191 12 0 15 32 7 85 -7 47 -17 126 -24
175 -6 50 -19 99 -29 109 -10 10 -18 36 -18 56 0 21 -9 32 -20 25 -23 -14 -22
544 2 591 10 20 -5 61 -43 118 -33 48 -59 99 -59 114 0 15 -21 27 -50 27 -27
0 -50 11 -50 25 0 51 -80 81 -81 30 -2 -35 -10 -27 -38 35 -19 44 -32 90 -27
102 5 13 -6 28 -23 35 -17 6 -31 23 -31 38 0 14 -22 50 -50 79 -49 53 -69 110
-30 86 11 -7 20 1 20 17 0 27 112 93 158 93 12 0 20 7 17 15 -5 16 24 56 89
121 78 80 96 221 46 364 -16 47 -30 106 -30 133 0 28 -12 47 -30 47 -16 0 -30
7 -30 15 0 8 -20 47 -44 85 -24 39 -45 78 -45 87 -1 9 -38 44 -83 76 -90 66
-67 64 -967 59 -181 -1 -343 1 -360 4 -17 4 -140 2 -272 -5z m931 -176 c0 -8
17 -114 38 -235 33 -194 34 -228 10 -290 -112 -277 -728 -225 -728 60 0 43 11
84 23 92 16 10 20 4 11 -19 -8 -20 -3 -33 14 -33 18 0 23 17 16 53 -7 37 -3
49 13 39 22 -14 32 32 24 112 -2 19 12 57 30 85 24 36 26 51 9 51 -20 0 -20 6
0 30 21 26 16 30 -37 30 -70 0 -61 21 -123 -287 -43 -214 -46 -221 -108 -290
-158 -175 -592 -127 -592 66 0 83 157 435 221 495 l58 55 561 0 c308 0 560 -6
560 -14z m598 -35 c105 -109 233 -531 177 -587 -14 -14 -25 -36 -25 -49 0 -17
-63 -24 -223 -24 -241 0 -286 16 -370 131 -31 42 -117 447 -117 549 0 54 503
36 558 -20z m-394 -863 c191 -91 436 -354 436 -470 0 -4 -130 -4 -290 -1 -159
3 -290 13 -290 21 0 91 -535 167 -742 105 -112 -34 -185 -130 -172 -227 17
-124 55 -158 332 -303 410 -215 542 -387 542 -709 0 -614 -889 -947 -1355
-508 l-65 61 0 212 c0 250 13 260 179 141 352 -253 815 -156 723 151 -27 93
-100 145 -412 300 -564 280 -641 900 -149 1196 163 98 192 102 679 98 l450 -4
134 -63z m-239 -589 c30 -31 32 -44 12 -76 -16 -25 -18 -48 -6 -65 11 -15 15
-85 9 -155 -10 -125 -11 -127 -38 -75 -16 29 -42 53 -57 53 -16 0 -80 36 -143
80 -62 44 -124 80 -137 80 -36 0 -165 65 -165 84 0 9 -17 16 -39 16 -46 0 -75
74 -42 107 68 68 530 30 606 -49z m935 -58 c37 -37 40 -67 40 -367 0 -388 -6
-401 -195 -406 -99 -3 -117 -10 -167 -70 l-57 -66 -66 65 c-58 55 -81 64 -171
64 -176 0 -184 17 -184 413 0 439 -33 407 413 407 320 0 350 -3 387 -40z m115
-1155 l6 -381 -62 -62 c-65 -65 -151 -82 -195 -38 -19 19 -39 10 -90 -40 -81
-79 -87 -79 -168 0 l-66 64 -66 -64 c-79 -77 -94 -78 -151 -17 -44 47 -49 47
-379 40 -254 -6 -322 -2 -284 14 28 12 86 40 130 61 105 50 510 56 550 8 35
-43 66 -37 120 20 26 28 62 50 80 50 18 0 54 -22 80 -50 58 -62 69 -62 136 0
62 58 82 61 135 22 94 -69 109 -21 109 352 0 293 5 348 34 380 67 74 76 33 81
-359z m-275 135 c0 -38 -13 -40 -269 -40 -257 0 -311 12 -281 60 27 44 550 25
550 -20z m0 -160 c0 -38 -13 -40 -267 -40 -275 0 -298 4 -279 52 19 51 546 40
546 -12z m0 -180 c0 -38 -13 -40 -269 -40 -257 0 -311 12 -281 60 27 44 550
25 550 -20z"/>
<path d="M2420 4589 c0 -16 -20 -38 -45 -48 -25 -10 -35 -19 -23 -20 13 0 18
-22 13 -52 -10 -51 27 -63 60 -19 8 11 15 5 15 -15 0 -19 -9 -35 -20 -35 -11
0 -20 -10 -20 -22 0 -12 14 -17 30 -11 23 9 30 -4 31 -53 2 -95 30 -156 49
-109 20 50 -32 363 -55 330 -12 -16 -14 -5 -6 30 7 32 3 55 -9 55 -11 0 -20
-14 -20 -31z"/>
<path d="M3070 3020 c-7 -12 -21 -15 -31 -9 -10 6 -29 -12 -42 -40 -13 -28
-38 -52 -55 -53 -18 -1 -60 -3 -94 -5 -105 -5 -188 -119 -188 -257 0 -183 234
-323 391 -236 277 156 377 414 214 555 -74 64 -169 86 -195 45z m186 -165 c8
-42 -271 -355 -317 -355 -57 0 -211 176 -187 214 33 53 63 53 118 -3 69 -69
70 -68 182 69 102 124 189 156 204 75z"/>
<path d="M4285 3841 c-25 -11 -58 -15 -73 -9 -40 15 -284 -229 -323 -322 -68
-161 -46 -330 56 -440 46 -49 40 -125 -16 -190 -62 -73 -93 -192 -57 -222 15
-12 28 -39 28 -58 0 -90 229 -242 405 -268 116 -18 124 -42 15 -47 -50 -2 -80
6 -80 21 -1 16 -6 15 -18 -4 -10 -15 -49 -30 -88 -33 -75 -7 -154 -60 -154
-103 0 -15 -7 -25 -15 -24 -40 7 -45 -5 -16 -34 27 -27 28 -38 7 -64 -20 -24
-20 -28 -1 -17 18 11 25 -3 25 -51 1 -48 6 -58 19 -37 16 26 21 25 32 -4 7
-19 21 -30 30 -25 9 6 22 2 29 -10 7 -11 1 -20 -14 -20 -60 0 -194 -148 -199
-220 -5 -71 36 -160 73 -160 11 0 29 -20 40 -45 14 -32 34 -43 70 -39 85 10
164 11 330 7 175 -5 339 5 455 27 52 10 89 6 120 -14 42 -27 178 -30 595 -14
28 1 174 -4 327 -11 268 -12 279 -11 365 37 48 27 88 43 88 34 0 -55 287 -107
334 -60 14 14 35 15 59 3 20 -10 154 -16 297 -13 314 6 281 2 315 36 23 23 39
23 106 0 105 -36 198 -35 230 3 16 19 30 23 38 10 17 -27 218 -32 281 -7 30
13 73 14 110 3 33 -10 97 -16 141 -14 45 2 92 -2 105 -10 26 -17 184 25 184
49 0 8 -20 19 -45 24 -25 4 -11 8 31 8 50 0 85 -13 101 -36 29 -41 127 -84
140 -62 8 12 117 13 303 2 83 -4 201 8 234 25 21 10 39 9 47 -4 7 -12 32 -20
56 -18 24 2 48 2 53 0 29 -11 480 -9 480 2 0 24 63 37 96 19 63 -33 471 -50
453 -19 -13 21 -10 22 12 5 18 -14 85 -20 169 -16 77 4 220 8 317 9 168 0 350
50 277 74 -19 7 -15 18 15 38 80 57 22 212 -109 290 -73 43 -91 90 -40 110 16
6 26 18 21 26 -6 8 13 25 40 38 57 26 86 88 73 156 -9 50 -54 64 -70 22 -6
-16 -15 -12 -25 13 -9 22 -5 55 10 80 21 35 21 38 -1 17 -40 -38 -100 -30
-112 15 -13 48 -20 49 -59 10 -34 -35 -132 -39 -188 -9 -22 11 -39 12 -39 2 0
-10 -40 -19 -90 -20 -49 -1 -90 7 -90 18 0 11 -22 5 -50 -13 -33 -21 -50 -25
-50 -9 0 17 -47 20 -178 10 -159 -12 -180 -9 -198 23 -17 30 -25 32 -51 10
-21 -17 -80 -23 -182 -19 -89 4 -154 -1 -158 -13 -4 -12 -20 -9 -40 7 -28 24
-33 23 -33 -5 0 -23 -13 -30 -45 -23 -25 5 -88 14 -140 21 -52 7 -100 21 -107
32 -7 13 -25 9 -47 -11 -29 -27 -64 -29 -219 -15 -101 9 -188 11 -194 5 -6 -6
-35 -12 -65 -13 -321 -11 -442 -11 -459 0 -12 7 -27 4 -34 -8 -24 -39 -75 -22
-64 22 11 40 10 40 -27 7 -23 -20 -39 -25 -39 -12 0 13 -13 23 -30 23 -16 0
-30 -8 -30 -18 0 -9 -22 -22 -50 -27 -27 -5 -50 -4 -50 3 0 6 -49 11 -109 10
-79 -2 -112 5 -120 27 -9 23 0 27 44 17 37 -9 46 -7 27 5 -29 20 30 60 133 92
46 14 157 -50 131 -76 -7 -7 10 -13 38 -13 60 0 148 64 166 121 7 21 25 39 41
39 35 0 90 82 94 140 6 72 194 169 227 117 6 -10 21 -12 32 -4 12 7 17 4 10
-6 -17 -28 69 -197 125 -246 48 -41 67 -48 121 -43 24 3 24 -2 -4 -24 -30 -24
-27 -29 30 -52 125 -51 221 -58 263 -18 21 20 59 36 84 36 26 0 47 8 47 17 0
22 99 66 120 53 9 -6 20 -3 25 5 5 8 6 5 3 -8 -11 -47 138 -124 182 -95 65 42
162 52 190 18 48 -58 235 -5 270 75 23 51 102 65 119 20 6 -16 6 -36 1 -45
-14 -22 26 -46 87 -53 27 -3 56 -16 64 -29 11 -17 32 -12 77 21 34 24 58 51
52 60 -5 9 15 21 45 27 30 6 58 2 62 -8 3 -10 25 -18 47 -18 33 0 36 -5 17
-28 -19 -24 -16 -27 18 -18 30 8 39 3 31 -18 -14 -34 139 -50 160 -16 7 12 31
16 52 9 21 -6 38 -2 38 10 0 11 14 21 30 21 17 0 30 9 30 20 0 11 10 18 23 15
12 -3 26 6 31 20 5 14 -5 25 -24 25 -18 0 -27 9 -20 20 7 11 26 20 43 20 87 0
121 163 47 230 -76 69 -136 250 -83 250 67 0 166 187 130 245 -9 14 -17 31
-17 38 0 8 -20 35 -45 60 -24 26 -87 94 -139 151 -52 57 -101 99 -110 94 -9
-6 -16 -1 -16 11 0 79 -204 11 -322 -107 -73 -73 -80 -76 -137 -52 -42 17
-107 20 -210 11 -196 -19 -281 18 -264 113 2 8 -28 38 -67 66 -38 29 -70 67
-70 86 0 36 -24 38 -187 12 -47 -8 -91 -26 -97 -41 -6 -15 -26 -27 -46 -27
-20 0 -41 -20 -48 -45 -10 -38 -15 -40 -32 -15 -13 21 -19 22 -20 4 0 -14 13
-30 29 -36 16 -6 25 -22 21 -35 -3 -12 -12 -46 -18 -74 -11 -51 -232 -45 -232
5 0 9 -22 16 -50 16 -27 0 -50 -9 -50 -20 0 -11 -35 -20 -77 -20 -80 0 -155
55 -139 102 21 63 -266 244 -327 206 -14 -9 -18 -5 -10 8 19 29 -50 64 -126
64 -49 0 -61 -8 -63 -45 0 -25 -6 -34 -11 -20 -7 16 -55 25 -138 25 -102 0
-126 -6 -117 -29 8 -21 0 -25 -34 -16 -28 7 -40 4 -31 -10 7 -11 -2 -33 -20
-48 -18 -15 -35 -22 -38 -17 -3 6 -25 -15 -49 -45 -23 -30 -33 -55 -22 -55 18
0 -3 -77 -32 -118 -11 -16 -65 43 -55 60 6 10 -16 18 -50 18 -33 0 -61 -9 -61
-20 0 -11 -38 -19 -85 -18 -97 4 -189 -9 -208 -29 -27 -27 -51 -12 -27 17 21
26 13 30 -58 30 -45 0 -82 -9 -82 -20 0 -11 -22 -20 -50 -20 -27 0 -50 9 -50
20 0 30 -80 24 -92 -7 -5 -15 -34 -26 -64 -25 -30 2 -78 -3 -107 -11 -30 -7
-60 -7 -67 0 -8 7 -33 13 -57 13 -24 0 -41 11 -38 24 6 35 -156 53 -284 31
-61 -10 -111 -11 -111 -2 0 9 -13 17 -30 17 -16 0 -30 15 -30 33 0 18 -21 61
-48 95 -146 190 -195 210 -341 137 -90 -45 -100 -47 -122 -16 -49 66 -297 70
-272 3 3 -9 -19 -34 -50 -54 -32 -21 -48 -38 -37 -39 11 0 4 -12 -16 -27 -19
-15 -33 -35 -30 -45 17 -52 -83 -112 -188 -111 -58 0 -122 -9 -141 -19 -23
-12 -35 -11 -35 3 0 12 -20 16 -50 8 -37 -9 -53 -3 -63 23 -8 20 -28 51 -45
70 -143 155 -183 190 -260 224 -100 45 -291 64 -357 36z m315 -223 c173 -78
190 -114 98 -215 l-61 -67 -44 39 c-141 129 -333 108 -333 -38 0 -67 49 -104
193 -147 458 -136 407 -650 -65 -650 -280 0 -426 120 -310 256 l57 67 55 -52
c105 -97 268 -110 342 -29 59 65 18 139 -102 185 -338 127 -397 185 -385 374
17 261 290 397 555 277z m1182 -418 c-5 -448 -1 -480 70 -480 44 0 48 -8 48
-90 l0 -90 -88 0 c-205 0 -212 20 -212 610 l0 472 94 -6 94 -6 -6 -410z m365
-30 l3 -440 55 -6 c51 -6 55 -13 55 -95 l0 -89 -97 0 c-184 0 -191 20 -203
577 -12 551 -20 507 94 499 l90 -6 3 -440z m2571 390 c344 -195 155 -660 -267
-660 l-91 0 0 -180 0 -180 -105 0 -105 0 0 542 0 542 240 -7 c211 -6 250 -13
328 -57z m1156 2 c90 -118 -90 -249 -192 -140 -32 35 -35 52 -18 102 34 95
150 117 210 38z m1106 -182 l0 -100 90 0 90 0 0 -93 0 -92 -91 10 -90 10 5
-192 6 -193 74 -6 c156 -13 127 -183 -30 -184 -190 0 -234 68 -234 360 l0 223
-60 -13 c-60 -13 -60 -13 -60 78 0 89 2 92 62 92 61 0 61 1 48 79 -18 105 -4
121 101 121 l89 0 0 -100z m-5697 -101 c129 -35 237 -201 237 -364 l0 -55
-250 0 c-278 0 -301 -13 -188 -108 73 -62 145 -66 231 -14 l63 39 54 -57 c139
-145 -260 -255 -444 -122 -331 239 -91 789 297 681z m1438 1 c128 -36 239
-197 239 -349 l0 -71 -250 0 c-267 0 -278 -5 -202 -94 59 -68 202 -80 266 -21
55 49 171 -61 124 -117 -75 -91 -318 -119 -431 -50 -366 224 -152 815 254 702z
m748 1 c37 -59 -14 -181 -77 -182 -135 -1 -177 -91 -169 -359 l5 -190 -94 0
c-52 0 -94 7 -94 15 0 8 0 173 0 365 l0 350 90 0 c88 0 90 -2 90 -63 l0 -62
43 54 c60 77 178 118 206 72z m503 -33 c37 -18 68 -43 67 -55 -1 -42 -99 -144
-114 -121 -44 65 -183 89 -225 38 -41 -49 -10 -81 114 -115 211 -59 291 -176
220 -324 -60 -126 -292 -172 -469 -92 -104 47 -103 49 7 198 3 4 30 -11 60
-35 64 -50 191 -57 229 -11 37 45 -10 84 -143 119 -182 48 -250 154 -191 297
61 144 258 189 445 101z m1420 14 c191 -87 268 -341 164 -542 -88 -171 -312
-233 -485 -134 -399 226 -95 865 321 676z m1099 9 c116 -49 148 -148 149 -466
l0 -265 -105 0 -105 0 6 252 c7 274 -11 328 -107 328 -114 0 -138 -55 -146
-328 l-6 -252 -94 0 -93 0 5 365 4 365 91 6 c87 6 90 4 91 -50 0 -49 3 -52 22
-19 47 81 178 110 288 64z m-611 -361 l0 -370 -100 0 -100 0 0 370 0 370 100
0 100 0 0 -370z m-4993 -470 c31 -33 72 -60 91 -60 56 0 104 -46 83 -79 -14
-23 -71 -30 -240 -34 -215 -4 -232 1 -223 58 5 32 -38 13 -59 -26 -22 -43 -79
-23 -79 27 0 11 5 15 12 8 7 -6 44 5 83 26 39 21 79 34 88 28 9 -6 17 4 17 21
0 17 17 31 38 31 20 0 48 14 62 30 36 44 63 37 127 -30z m2568 21 c25 -21 45
-46 45 -57 0 -22 106 -64 163 -64 21 0 37 -14 37 -32 0 -21 -11 -28 -31 -20
-20 7 -26 3 -17 -11 8 -13 3 -18 -14 -13 -15 5 -37 -2 -48 -17 -12 -16 -38
-21 -65 -14 -39 10 -42 17 -21 44 14 18 17 27 9 20 -9 -8 -48 0 -86 16 -64 26
-75 25 -138 -14 l-69 -42 0 41 c0 23 -9 42 -19 42 -11 0 -10 -24 2 -61 26 -73
14 -93 -30 -49 -19 19 -72 33 -130 36 -55 2 -96 10 -91 17 4 7 -29 4 -74 -6
-98 -22 -211 -4 -211 33 0 15 29 32 66 39 36 7 78 23 92 37 74 67 101 69 158
11 66 -68 151 -75 212 -17 24 22 53 40 64 40 11 0 32 18 46 40 31 50 91 50
150 1z m-1883 -31 c32 -27 65 -50 74 -50 9 0 11 -8 5 -18 -6 -9 4 -16 22 -15
18 2 36 -7 41 -20 17 -47 -350 -80 -368 -33 -8 19 -16 19 -36 -1 -33 -33 -143
-19 -158 19 -8 21 8 28 65 28 77 0 283 89 283 122 0 27 8 23 72 -32z m795 -20
c17 -16 40 -30 52 -30 11 0 21 -9 21 -20 0 -11 27 -20 60 -20 33 0 60 -9 60
-20 0 -11 -28 -20 -61 -20 -36 0 -56 -8 -49 -20 16 -25 -32 -26 -98 -1 -32 13
-55 13 -62 0 -22 -35 -110 -22 -110 16 0 85 135 168 187 115z m-356 -38 c23
-16 67 -32 100 -37 52 -8 50 -9 -17 -12 -41 -2 -80 -14 -85 -28 -6 -16 -59
-26 -154 -28 -87 -1 -125 4 -95 12 28 8 48 25 45 38 -3 13 8 23 23 23 15 0 33
14 39 30 15 38 92 39 144 2z m1420 -222 c40 -63 4 -130 -70 -130 -90 0 -130
88 -69 150 42 41 106 32 139 -20z m-281 -50 c0 -26 -189 -31 -1565 -35 -1532
-5 -1565 -4 -1565 33 0 55 -94 53 1585 42 1356 -9 1545 -14 1545 -40z m4006 5
c-11 -59 -3576 -64 -3576 -5 0 40 12 40 1791 40 1696 0 1792 -2 1785 -35z
m-3963 -135 c-6 -15 2 -32 18 -38 57 -22 7 -62 -81 -65 -99 -4 -99 3 -12 97
49 53 94 57 75 6z m327 -31 c0 -12 9 -16 20 -9 11 7 28 -7 37 -32 13 -35 19
-38 28 -13 12 31 116 41 365 37 55 -1 260 -2 455 -1 476 1 665 -40 339 -74
-68 -7 -124 -20 -124 -29 0 -71 -168 -47 -191 27 -11 32 -15 32 -42 4 -22 -21
-39 -24 -55 -10 -34 28 -172 2 -172 -32 0 -15 -9 -27 -20 -27 -11 0 -20 13
-20 28 0 57 -60 53 -63 -4 -2 -45 -4 -46 -11 -10 -11 57 -61 99 -88 72 -13
-13 -9 -28 11 -45 35 -29 42 -81 11 -81 -12 0 -30 21 -42 46 -12 27 -40 47
-70 50 -29 2 -45 -5 -38 -16 7 -12 -17 -20 -59 -20 -39 0 -71 9 -71 19 0 11
14 15 30 8 22 -8 27 -2 17 23 -9 25 -26 30 -65 21 -96 -24 -402 -32 -402 -11
0 11 16 21 35 21 19 1 62 19 95 39 71 44 90 48 90 19z m-3100 -39 c0 -12 -63
-20 -150 -20 -87 0 -150 8 -150 20 0 12 63 20 150 20 87 0 150 -8 150 -20z
m269 2 c-31 -30 -175 -35 -184 -7 -6 18 22 25 97 25 65 0 99 -7 87 -18z m371
-2 c0 -11 -16 -20 -36 -20 -20 0 -54 -13 -75 -28 -33 -24 -41 -23 -65 5 -15
18 -20 20 -12 5 9 -18 6 -23 -8 -14 -12 7 -17 26 -11 43 13 34 207 42 207 9z
m580 2 c0 -18 -206 -38 -268 -26 -86 18 -15 44 118 44 83 0 150 -8 150 -18z
m1109 -1 c-17 -17 -192 -33 -239 -21 -46 11 -91 -2 -124 -37 -48 -48 -93 -63
-128 -41 -24 15 -23 18 2 19 110 6 -155 60 -279 57 -98 -3 -151 3 -157 19 -5
17 117 23 468 23 298 0 469 -7 457 -19z m2791 -13 c0 -15 -8 -28 -18 -28 -10
0 -33 -5 -50 -12 -18 -7 -32 -2 -32 10 0 12 16 23 35 24 22 1 25 5 9 11 -14 6
-36 3 -50 -7 -13 -10 -37 -17 -54 -15 -16 1 -69 4 -116 6 -159 6 -66 40 106
40 133 0 170 -7 170 -29z m608 4 c-19 -50 -208 -71 -208 -23 0 23 -37 31 -165
36 -115 5 -82 8 109 11 227 3 273 -1 264 -24z m788 17 c-15 -14 -536 -16 -551
-1 -6 7 117 12 275 12 158 0 282 -5 276 -11z m-2996 -239 c0 -49 9 -70 30 -70
17 0 30 -9 30 -20 0 -11 -22 -20 -48 -20 -45 0 -88 137 -54 171 25 26 42 2 42
-61z m520 28 c0 -10 -22 -18 -50 -18 -37 0 -50 -11 -50 -40 0 -22 9 -40 19
-40 11 0 15 14 8 30 -8 21 2 30 31 30 31 0 42 -12 42 -50 0 -42 -9 -50 -59
-50 -99 0 -128 134 -36 165 34 12 95 -6 95 -27z m280 -39 c0 -39 10 -59 30
-59 17 0 30 -10 30 -21 0 -12 -25 -19 -55 -15 -57 6 -84 78 -57 149 18 46 52
11 52 -54z m-4600 41 c0 -11 -15 -20 -34 -20 -30 0 -30 -3 3 -27 50 -36 27
-98 -32 -89 -24 3 -48 18 -53 33 -6 20 3 23 39 12 l47 -14 -48 39 c-28 23 -42
50 -34 63 18 28 112 31 112 3z m109 -15 c13 -33 15 -33 33 0 35 62 76 42 71
-34 -5 -80 -27 -111 -45 -64 -7 18 -21 27 -32 20 -11 -7 -28 0 -38 15 -13 21
-17 16 -18 -17 0 -25 -9 -45 -20 -45 -11 0 -20 36 -20 80 0 85 43 113 69 45z
m267 -39 c26 -84 19 -103 -26 -66 -24 20 -36 20 -60 0 -47 -39 -54 -14 -20 67
39 93 77 93 106 -1z m176 -11 c2 -81 -18 -96 -50 -40 -20 33 -21 33 -21 0 -1
-19 -10 -35 -21 -35 -11 0 -20 37 -20 81 0 120 109 114 112 -6z m168 65 c0
-11 -9 -20 -20 -20 -11 0 -20 -27 -20 -60 0 -33 -9 -60 -20 -60 -11 0 -20 24
-20 53 0 29 -16 65 -35 79 -31 24 -27 27 40 27 41 1 75 -8 75 -19z m250 -60
c0 -61 -7 -71 -55 -76 -52 -6 -55 -2 -55 76 0 78 3 82 55 76 48 -5 55 -15 55
-76z m94 29 c8 -69 45 -72 52 -4 9 73 44 71 44 -3 0 -69 -43 -110 -99 -92 -31
9 -41 30 -41 81 0 80 34 94 44 18z m236 31 c0 -11 -16 -21 -35 -21 -26 -1 -23
-6 11 -20 62 -25 51 -89 -15 -89 -26 0 -51 11 -56 25 -5 16 4 21 28 13 35 -11
35 -10 2 18 -53 43 -44 94 15 94 28 0 50 -9 50 -20z m100 -60 c0 -44 -9 -80
-20 -80 -11 0 -20 36 -20 80 0 44 9 80 20 80 11 0 20 -36 20 -80z m109 36 l31
-45 0 45 c0 24 9 44 20 44 11 0 20 -36 20 -80 0 -90 -20 -101 -67 -35 l-31 45
-1 -45 c-2 -81 -41 -47 -41 35 0 90 23 101 69 36z m231 33 c0 -5 -20 -18 -45
-28 -34 -14 -37 -19 -10 -20 19 0 35 -9 35 -20 0 -10 -16 -22 -35 -27 -26 -7
-24 -10 10 -12 68 -3 54 -42 -15 -42 -57 0 -60 4 -60 80 0 76 3 80 60 80 33 0
60 -5 60 -11z m140 -9 c0 -11 -16 -21 -35 -22 -31 -2 -31 -4 -2 -11 46 -13 60
-59 27 -87 -31 -26 -117 -8 -100 21 6 9 27 12 46 6 31 -9 31 -8 -1 19 -53 43
-44 94 15 94 28 0 50 -9 50 -20z m160 0 c0 -11 -15 -20 -34 -20 -30 0 -30 -3
3 -27 50 -37 27 -98 -34 -89 -25 3 -42 15 -39 26 4 11 22 17 40 14 24 -4 20 5
-14 33 -27 21 -42 48 -34 60 18 28 112 31 112 3z m340 0 c0 -11 -16 -20 -34
-20 -28 0 -26 -6 11 -32 36 -26 40 -37 21 -61 -27 -32 -112 -29 -102 3 4 11
22 17 40 14 24 -4 20 5 -14 33 -27 21 -42 48 -34 60 18 28 112 31 112 3z m95
-50 c-7 -94 -44 -98 -51 -5 -5 58 1 75 25 75 24 0 30 -17 26 -70z m98 40 c6
-16 19 -30 29 -30 10 0 18 14 18 30 0 17 14 30 30 30 22 0 30 -22 30 -80 0
-44 -9 -80 -20 -80 -11 0 -20 20 -20 45 -1 33 -5 38 -18 17 -10 -15 -28 -21
-40 -13 -12 7 -22 0 -22 -18 0 -17 -9 -31 -20 -31 -11 0 -20 36 -20 80 0 79
31 108 53 50z m283 -15 c4 -20 -9 -41 -30 -49 -20 -7 -46 -27 -58 -43 -30 -40
-45 -6 -33 73 11 75 108 90 121 19z m84 -15 c0 -40 10 -60 30 -60 17 0 30 -10
30 -21 0 -12 -24 -19 -54 -15 -64 7 -100 156 -37 156 21 0 31 -19 31 -60z
m220 40 c0 -11 -20 -21 -45 -22 -34 -2 -36 -5 -10 -12 19 -5 35 -17 35 -26 0
-9 -16 -21 -35 -26 -26 -7 -24 -10 10 -12 68 -3 54 -42 -15 -42 -57 0 -60 4
-60 80 0 76 3 80 60 80 33 0 60 -9 60 -20z m240 0 c0 -11 -16 -21 -35 -21 -27
-1 -24 -6 10 -20 72 -29 31 -111 -48 -96 -41 8 -30 48 13 43 23 -2 22 3 -5 23
-53 39 -44 91 15 91 28 0 50 -9 50 -20z m160 0 c0 -11 -16 -21 -35 -21 -30 -2
-30 -4 4 -17 39 -15 39 -16 0 -38 -35 -20 -35 -23 -4 -23 19 -1 35 -10 35 -21
0 -29 -100 -24 -102 5 -1 14 -5 50 -10 80 -9 50 -4 55 51 55 34 0 61 -9 61
-20z m91 -32 c-10 -40 -4 -53 27 -62 72 -18 64 -58 -10 -50 -77 9 -110 164
-36 164 25 0 29 -12 19 -52z m289 -28 c0 -44 -9 -80 -20 -80 -11 0 -20 36 -20
80 0 44 9 80 20 80 11 0 20 -36 20 -80z m118 45 c20 -33 21 -33 21 0 1 19 10
35 21 35 11 0 20 -36 20 -80 0 -85 -24 -103 -58 -45 -20 33 -21 33 -21 -2 -2
-67 -51 -21 -57 54 -7 81 37 103 74 38z m682 -45 c0 -44 -9 -80 -20 -80 -11 0
-20 36 -20 80 0 44 9 80 20 80 11 0 20 -36 20 -80z m109 45 c13 -33 15 -33 33
0 36 63 73 41 74 -45 1 -44 -7 -80 -17 -80 -11 0 -19 19 -19 42 0 33 -6 38
-26 21 -20 -16 -33 -16 -50 1 -19 19 -24 14 -24 -20 0 -24 -9 -44 -20 -44 -11
0 -20 36 -20 80 0 85 43 113 69 45z m191 -45 c0 -44 -9 -80 -20 -80 -11 0 -20
36 -20 80 0 44 9 80 20 80 11 0 20 -36 20 -80z m160 60 c0 -11 -9 -20 -20 -20
-11 0 -20 -27 -20 -60 0 -33 -9 -60 -20 -60 -11 0 -20 27 -20 60 0 33 -9 60
-20 60 -11 0 -20 9 -20 20 0 11 27 20 60 20 33 0 60 -9 60 -20z m80 -40 c0
-40 10 -60 30 -60 17 0 30 -9 30 -20 0 -11 -22 -20 -50 -20 -45 0 -50 8 -50
80 0 44 9 80 20 80 11 0 20 -27 20 -60z m220 40 c0 -11 -20 -21 -45 -22 -34
-2 -36 -5 -10 -12 19 -5 35 -17 35 -26 0 -9 -16 -21 -35 -26 -26 -7 -24 -10
10 -12 68 -3 54 -42 -15 -42 -57 0 -60 4 -60 80 0 76 3 80 60 80 33 0 60 -9
60 -20z m140 0 c0 -11 -16 -21 -35 -22 -31 -2 -31 -4 -2 -11 77 -21 43 -119
-36 -104 -44 9 -35 49 9 41 31 -5 31 -3 -1 23 -53 41 -44 93 15 93 28 0 50 -9
50 -20z m160 0 c0 -11 -15 -20 -34 -20 -30 0 -30 -3 3 -27 50 -37 27 -98 -34
-89 -25 3 -42 15 -39 26 4 11 22 17 40 14 24 -4 20 5 -14 33 -27 21 -42 48
-34 60 18 28 112 31 112 3z m270 0 c7 -11 -10 -20 -40 -20 -55 0 -67 -58 -15
-75 16 -5 21 3 13 23 -8 21 -1 32 20 32 36 0 44 -70 11 -91 -72 -44 -166 78
-106 138 21 20 103 15 117 -7z m166 -36 c-2 -30 3 -66 11 -80 24 -38 -29 -28
-59 11 -25 33 -27 33 -27 0 -2 -74 -41 -31 -41 45 0 76 3 80 60 80 54 0 60 -6
56 -56z m194 -12 c0 -71 -54 -112 -105 -80 -78 50 -39 155 53 144 43 -5 52
-17 52 -64z m91 23 l2 -45 18 45 c21 53 59 60 60 10 0 -32 3 -31 29 4 41 54
52 32 29 -55 -24 -84 -52 -95 -78 -29 l-18 45 -2 -45 c-2 -74 -51 -51 -74 35
-17 65 -16 80 6 80 15 0 28 -20 28 -45z m294 17 c-19 -14 -35 -50 -35 -79 0
-29 -9 -53 -20 -53 -11 0 -20 25 -20 56 0 31 -11 67 -24 80 -19 19 -6 24 55
23 70 0 75 -3 44 -27z m85 -2 c0 -16 14 -30 30 -30 17 0 30 14 30 30 0 17 9
30 20 30 11 0 20 -36 20 -80 0 -44 -9 -80 -20 -80 -11 0 -20 14 -20 30 0 17
-13 30 -30 30 -16 0 -30 -13 -30 -30 0 -16 -9 -30 -20 -30 -11 0 -20 36 -20
80 0 44 9 80 20 80 11 0 20 -13 20 -30z"/>
<path d="M8360 3248 l0 -173 113 9 c284 24 282 336 -2 336 l-111 0 0 -172z"/>
<path d="M5087 3105 c-110 -89 -84 -125 92 -125 88 0 161 4 161 9 0 113 -164
187 -253 116z"/>
<path d="M6518 3082 c-89 -90 -77 -102 102 -102 179 0 201 21 111 111 -66 66
-140 63 -213 -9z"/>
<path d="M9167 3097 c-84 -41 -113 -189 -58 -296 67 -128 245 -109 291 30 61
185 -76 341 -233 266z"/>
<path d="M10469 1658 c-18 -28 21 -67 49 -49 32 20 27 71 -7 71 -16 0 -35 -10
-42 -22z"/>
</g>
</svg>
